<?xml version="1.0" standalone="no"?>
<!DOCTYPE svg PUBLIC "-//W3C//DTD SVG 20010904//EN"
 "http://www.w3.org/TR/2001/REC-SVG-20010904/DTD/svg10.dtd">
<svg version="1.0" xmlns="http://www.w3.org/2000/svg"
 width="320.000000pt" height="320.000000pt" viewBox="0 0 320.000000 320.000000"
 preserveAspectRatio="xMidYMid meet">
<metadata>
Created by potrace 1.11, written by Peter Selinger 2001-2013
</metadata>
<g transform="translate(0.000000,320.000000) scale(0.100000,-0.100000)"
fill="#000000" stroke="none">
<path d="M530 2750 l0 -200 1135 0 1135 0 0 -930 0 -930 -930 0 -930 0 0 200
0 200 -205 0 -205 0 0 -405 0 -405 1335 0 1335 0 0 1335 0 1335 -1335 0 -1335
0 0 -200z"/>
<path d="M0 1815 l0 -335 1000 0 1000 0 0 335 0 335 -1000 0 -1000 0 0 -335z"/>
</g>
</svg>
